PathFileType  4	(X/Y/Z) C:\Users\antoi\Documents\MyRepositories\mobilecap\ResultsAnalysis
DataRate	CameraRate	NumFrames	NumMarkers	Units	OrigDataRate	OrigDataStartFrame	OrigNumFrames
100.0	100.0	4	51	mm	100.0	49	130
Frame#	Time	r_knee			r_shank_antsup			r_ankle			r_calc			r_5meta			r_toe			L_knee			L_shank_antsup			L_ankle			L_calc			L_5meta			L_toe			r_sh2			r_sh3			r_sh4			L_sh2			L_sh3			r_thigh1			r_thigh2			r_thigh3			r_thigh4			r_thigh5			L_thigh1			L_thigh2			L_thigh3			L_thigh4			r.ASIS			r.PSIS			L.ASIS			L.PSIS			C7			R_Shoulder			L_Shoulder			R_Sternum			L_Sternum			R_humerus			R_elbow_med			R_elbow_lat			R_forearm			R_wrist_radius			R_wrist_ulna			L_humerus			L_elbow_med			L_elbow_lat			L_forearm			L_wrist_radius			L_wrist_ulna			R_HJC			L_HJC			R_HJC_reg			L_HJC_reg			
		X1	Y1	Z1	X2	Y2	Z2	X3	Y3	Z3	X4	Y4	Z4	X5	Y5	Z5	X6	Y6	Z6	X7	Y7	Z7	X8	Y8	Z8	X9	Y9	Z9	X10	Y10	Z10	X11	Y11	Z11	X12	Y12	Z12	X13	Y13	Z13	X14	Y14	Z14	X15	Y15	Z15	X16	Y16	Z16	X17	Y17	Z17	X18	Y18	Z18	X19	Y19	Z19	X20	Y20	Z20	X21	Y21	Z21	X22	Y22	Z22	X23	Y23	Z23	X24	Y24	Z24	X25	Y25	Z25	X26	Y26	Z26	X27	Y27	Z27	X28	Y28	Z28	X29	Y29	Z29	X30	Y30	Z30	X31	Y31	Z31	X32	Y32	Z32	X33	Y33	Z33	X34	Y34	Z34	X35	Y35	Z35	X36	Y36	Z36	X37	Y37	Z37	X38	Y38	Z38	X39	Y39	Z39	X40	Y40	Z40	X41	Y41	Z41	X42	Y42	Z42	X43	Y43	Z43	X44	Y44	Z44	X45	Y45	Z45	X46	Y46	Z46	X47	Y47	Z47	X48	Y48	Z48	X49	Y49	Z49	X50	Y50	Z50	X51	Y51	Z51	

49	0.48000000	268.98759	458.52660	-93.26313	256.08939	384.85032	-76.29778	149.17466	101.53909	-139.64903	74.95926	72.94730	-176.25835	244.24471	44.39766	-112.90978	288.90203	59.33487	-169.87268	529.33393	475.16597	-343.83543	569.39325	423.74768	-348.10683	618.14162	115.77101	-321.26358	567.58334	62.31839	-270.32292	720.61123	96.77631	-351.85686	762.00966	137.66787	-302.24390	223.36599	277.16235	-81.54142	185.29108	405.60763	-88.58849	144.38639	298.05887	-99.95455	481.35522	406.28881	-361.49712	517.58292	289.55850	-361.72441	420.73994	749.73572	-78.58985	399.86899	636.75154	-78.33908	345.75380	624.49475	-42.14643	321.13028	763.90330	-19.73408	294.37419	651.65074	-39.80162	472.80057	760.82163	-366.98166	531.41455	635.86239	-355.24181	369.76500	711.28081	-392.12879	437.50238	585.70153	-375.68472	429.94414	901.93433	-82.47130	246.97698	923.07173	-159.69389	432.41114	903.32738	-340.47958	244.03876	911.44878	-266.18338	309.70536	1390.37664	-205.65569	376.02723	1330.98526	-59.22487	349.39234	1334.69349	-375.02313	423.09308	1302.57539	-197.33955	418.88089	1302.37269	-241.86656	431.79930	1102.66478	23.44644	399.56048	986.51665	-11.33888	429.39089	1016.83936	49.69435	530.75898	947.58039	34.49010	611.45177	863.42549	14.14635	587.20750	835.86515	38.67160	358.40807	1204.07155	-434.37695	268.76919	1003.61331	-393.24614	270.35208	1015.48042	-454.45340	298.59159	914.47890	-490.18193	293.25491	788.94944	-491.87626	258.22484	787.17519	-500.71585	364.61908	827.43801	-111.57202	369.66757	828.64711	-311.79662	365.68163	834.91475	-109.25472	361.01605	816.44472	-278.47104	
50	0.49000000	276.96578	457.62277	-93.36993	262.83278	384.08449	-76.43758	150.22063	102.66839	-139.72603	75.74118	74.80829	-176.34041	244.50782	44.29747	-112.89832	289.37822	58.89646	-169.70870	539.74472	470.67762	-342.34439	582.06315	422.25325	-346.94596	650.59134	117.67697	-321.49389	603.80045	60.44401	-270.65250	753.79900	105.86991	-352.25471	792.78820	149.30326	-302.58400	227.94773	277.00923	-81.62533	192.25970	406.22649	-88.86900	149.48117	299.36219	-100.09904	495.18298	399.57633	-359.69655	538.80496	285.19585	-360.57402	432.14536	747.16419	-78.08545	409.96419	634.61922	-77.66261	355.47800	622.89364	-42.03178	332.22431	762.47666	-19.83108	304.32629	650.56344	-39.97445	486.16918	755.89271	-367.40607	542.20240	629.59986	-354.75336	382.24695	708.06392	-392.11829	447.56739	581.34150	-374.66190	442.92399	899.39538	-82.17488	260.63645	920.84860	-161.29090	447.68133	900.35706	-340.45282	258.79087	909.02279	-267.77515	323.96007	1387.85641	-206.25222	390.33418	1328.45002	-59.88098	363.73324	1331.97466	-375.60077	437.40335	1299.94887	-197.77491	433.34301	1299.76190	-242.32525	447.12192	1100.66823	23.07886	415.26743	984.20981	-11.32211	445.32970	1014.84101	49.49329	547.16422	946.48073	33.35128	628.45384	863.13791	12.20699	604.79536	835.41464	37.12481	372.22950	1201.35814	-434.91117	281.67547	1001.55658	-393.48129	282.88569	1013.61031	-454.69877	308.40258	912.34356	-491.23576	299.74772	786.71483	-493.46792	264.67984	786.36242	-501.83835	377.66166	825.00816	-111.91667	384.55259	825.86589	-312.08148	378.56516	832.43719	-109.54687	375.63196	813.62119	-278.96310	
51	0.50000000	285.59490	456.60760	-93.50854	270.20500	383.23985	-76.58645	151.45672	104.02133	-139.72767	76.64494	77.02007	-176.35130	244.82391	44.20659	-112.86854	289.94507	58.45421	-169.52892	550.47887	466.53139	-341.09885	594.70623	420.73360	-345.83519	680.24940	119.95124	-321.56510	636.78626	59.44066	-270.97143	783.66585	114.53451	-352.12619	820.34742	160.07681	-302.24209	233.02355	276.86381	-81.67747	199.84894	406.86499	-89.14530	155.13460	300.77424	-100.19093	509.19381	393.62640	-358.40262	559.17506	281.66351	-359.77063	443.78150	744.58369	-77.51582	420.52465	632.46232	-76.88380	365.61250	621.23567	-41.86156	343.59607	761.01512	-20.02109	314.67047	649.36292	-40.20077	499.91504	751.09213	-368.09295	553.36564	623.52528	-354.55813	395.20941	705.06194	-392.33763	458.01819	577.21588	-373.86360	455.96973	896.88733	-81.80708	274.43302	918.49506	-163.02688	463.12960	897.29485	-340.38139	273.70373	906.44357	-269.52359	338.22974	1385.29279	-206.97471	404.60420	1325.84397	-60.60740	378.16397	1329.16117	-376.29521	451.75169	1297.29039	-198.26292	447.86676	1297.13320	-242.85024	462.34975	1098.57603	22.63197	430.90690	981.83697	-11.46533	461.12742	1012.72633	49.17806	563.31071	945.05739	32.26988	645.07545	862.38681	10.40513	621.90728	834.54336	35.65635	386.32838	1198.52693	-435.51699	295.00600	999.29708	-393.86380	295.89845	1011.55520	-455.07717	318.75542	910.12074	-492.38635	306.85714	784.43517	-495.14862	271.63837	785.50148	-503.07748	390.81104	822.55406	-112.26217	399.68422	822.97144	-312.34420	391.60152	829.89168	-109.77446	390.44158	810.69440	-279.40455	
52	0.51000000	294.87596	455.48624	-93.68041	278.20856	382.32875	-76.75487	152.89039	105.65341	-139.64798	77.71110	79.63688	-176.28957	245.19665	44.13408	-112.81554	290.60575	58.00063	-169.33887	561.85623	462.88886	-340.12154	607.65069	419.19752	-344.76807	706.69141	121.95654	-321.37718	665.95309	58.71195	-271.15777	810.01837	121.90193	-351.41023	844.52619	169.12524	-301.19986	238.60128	276.75024	-81.70123	208.10035	407.52209	-89.41934	161.35150	302.32006	-100.23672	523.55673	388.63362	-357.73312	578.60252	278.87474	-359.39429	455.68108	742.00618	-76.91638	431.55205	630.27104	-76.04092	376.16266	619.53880	-41.66930	355.26934	759.51804	-20.34748	325.42060	648.06744	-40.50286	514.13695	746.68325	-368.92176	565.23351	617.99567	-354.56843	408.80094	702.36129	-392.73842	469.22008	573.50272	-373.30873	469.10672	894.41637	-81.37643	288.38725	916.02817	-164.86236	478.72104	894.23131	-340.25360	288.74473	903.75742	-271.38563	352.52612	1382.73679	-207.84065	418.82908	1323.21386	-61.41165	392.69049	1326.29764	-377.12679	466.14355	1294.65724	-198.82015	462.46587	1294.54274	-243.45738	477.46827	1096.43060	22.07856	446.44117	979.42383	-11.76280	476.76503	1010.53688	48.74319	579.18513	943.34975	31.23203	661.29993	861.19959	8.74422	638.52915	833.28141	34.27580	400.69946	1195.61452	-436.19943	308.75014	996.87811	-394.38236	309.37260	1009.35173	-455.58430	329.63793	907.84327	-493.62161	314.59897	782.18684	-496.90097	279.13901	784.60716	-504.40824	404.09321	820.08620	-112.61817	415.04137	820.03768	-312.59437	404.83708	827.30449	-109.92577	405.40694	807.73773	-279.77415	
